<svg xmlns="http://www.w3.org/2000/svg" viewBox="0 0 500 500"><g id="freepik--background-simple--inject-103"><path d="M27.35,208.53A151.08,151.08,0,0,1,107.81,89.82,343.84,343.84,0,0,1,234.1,52.57C354,41.32,387.75,102.78,408,158.24s86.19,149.15,79.45,241.34c0,0-5.25,51-24.74,74.2H26.49S1,439.3,28,374.1s-9-68.21-2.25-148.4C26.26,219.58,26.8,213.87,27.35,208.53Z" style="fill:#92E3A9"></path><path d="M27.35,208.53A151.08,151.08,0,0,1,107.81,89.82,343.84,343.84,0,0,1,234.1,52.57C354,41.32,387.75,102.78,408,158.24s86.19,149.15,79.45,241.34c0,0-5.25,51-24.74,74.2H26.49S1,439.3,28,374.1s-9-68.21-2.25-148.4C26.26,219.58,26.8,213.87,27.35,208.53Z" style="fill:#fff;opacity:0.7000000000000001"></path></g><g id="freepik--Window--inject-103"><g style="opacity:0.30000000000000004"><rect x="39.23" y="28.81" width="66.62" height="95.36" style="fill:none;stroke:#000;stroke-linecap:round;stroke-linejoin:round"></rect><rect x="110.43" y="28.81" width="66.62" height="95.36" style="fill:none;stroke:#000;stroke-linecap:round;stroke-linejoin:round"></rect><rect x="181.62" y="28.81" width="66.62" height="95.36" style="fill:none;stroke:#000;stroke-linecap:round;stroke-linejoin:round"></rect><rect x="39.23" y="128.74" width="66.62" height="95.36" style="fill:none;stroke:#000;stroke-linecap:round;stroke-linejoin:round"></rect><rect x="110.43" y="128.74" width="66.62" height="95.36" style="fill:none;stroke:#000;stroke-linecap:round;stroke-linejoin:round"></rect><rect x="181.62" y="128.74" width="66.62" height="95.36" style="fill:none;stroke:#000;stroke-linecap:round;stroke-linejoin:round"></rect><rect x="39.23" y="228.68" width="66.62" height="95.36" style="fill:none;stroke:#000;stroke-linecap:round;stroke-linejoin:round"></rect><rect x="110.43" y="228.68" width="66.62" height="95.36" style="fill:none;stroke:#000;stroke-linecap:round;stroke-linejoin:round"></rect><rect x="181.62" y="228.68" width="66.62" height="95.36" style="fill:none;stroke:#000;stroke-linecap:round;stroke-linejoin:round"></rect></g></g><g id="freepik--Device--inject-103"><path d="M446.52,43.18V346.63a15.09,15.09,0,0,1-15.08,15.09H300.32a15.09,15.09,0,0,1-15.08-15.09V43.17A15.07,15.07,0,0,1,300.31,28.1h56.28l.05.17c1.4,5.05,4.63,8.33,8.21,8.33h2c3.59,0,6.81-3.28,8.22-8.33l.05-.17h56.27A15.08,15.08,0,0,1,446.52,43.18Z" style="fill:#fff"></path><path d="M446.52,260.77V43.18A15.08,15.08,0,0,0,431.44,28.1H375.17l-.05.17c-1.41,5.05-4.63,8.33-8.22,8.33h-2c-3.58,0-6.81-3.28-8.21-8.33l-.05-.17H300.31a15.07,15.07,0,0,0-15.07,15.07v217.6Z" style="fill:#92E3A9"></path><path d="M375.12,28.27c-1.41,5.05-4.63,8.33-8.22,8.33h-2c-3.58,0-6.81-3.28-8.21-8.33l-.05-.17H309.16a23.93,23.93,0,0,0-23.63,20.15H446.22A23.93,23.93,0,0,0,422.6,28.1H375.17Z" style="fill:#d4d4d4"></path><path d="M456.77,115.66V85.35H454V46.55a23.92,23.92,0,0,0-23.92-23.92H301.64a23.92,23.92,0,0,0-23.92,23.92V354.88a23.92,23.92,0,0,0,23.92,23.92H430.11A23.92,23.92,0,0,0,454,354.88V141.49h2.74V123.58H454v-7.92ZM446.52,337.8a23.93,23.93,0,0,1-23.92,23.92H309.16a23.92,23.92,0,0,1-23.92-23.92V52A23.92,23.92,0,0,1,309.16,28.1h47.43l.05.17c1.4,5.05,4.63,8.33,8.21,8.33h2c3.59,0,6.81-3.28,8.22-8.33l.05-.17H422.6A23.93,23.93,0,0,1,446.52,52Z" style="fill:#707070;stroke:#263238;stroke-linejoin:round"></path><path d="M428.2,25.93H303.56A23.06,23.06,0,0,0,280.49,49V352.44a23.06,23.06,0,0,0,23.07,23.06H428.2a23.06,23.06,0,0,0,23.06-23.06V49A23.06,23.06,0,0,0,428.2,25.93Zm18.32,312.72a23.07,23.07,0,0,1-23.07,23.07H308.31a23.07,23.07,0,0,1-23.07-23.07V51.16A23.06,23.06,0,0,1,308.3,28.1h48.29l.05.17c1.4,5.05,4.63,8.33,8.21,8.33h2c3.59,0,6.81-3.28,8.22-8.33l.05-.17h48.28a23.07,23.07,0,0,1,23.07,23.07Z" style="fill:#263238;stroke:#263238;stroke-linejoin:round"></path><path d="M367.63,29.24a2.25,2.25,0,1,0-2.25,2.25A2.24,2.24,0,0,0,367.63,29.24Z" style="fill:#fff"></path><path d="M299.57,37.85c0,2.27-2.55,3.09-2.56,4.82v.12h2.48v.76h-3.31v-.64c0-2.43,2.55-2.91,2.55-5,0-.77-.26-1.18-.88-1.18s-.88.44-.88,1.11v.66h-.79v-.61c0-1.15.53-1.92,1.69-1.92S299.57,36.7,299.57,37.85Z" style="fill:#263238"></path><path d="M303.7,37.84V38a1.5,1.5,0,0,1-.92,1.55,1.5,1.5,0,0,1,.92,1.56v.58c0,1.16-.54,1.91-1.7,1.91s-1.69-.75-1.69-1.91v-.51h.78v.57c0,.68.28,1.09.88,1.09s.89-.4.89-1.17v-.58c0-.74-.32-1.1-.95-1.12h-.45v-.75H302a.91.91,0,0,0,.91-1v-.35c0-.77-.27-1.17-.89-1.17s-.88.42-.88,1.1v.38h-.78v-.34c0-1.15.53-1.9,1.69-1.9S303.7,36.69,303.7,37.84Z" style="fill:#263238"></path><path d="M305.32,38.41v1h-.8v-1Zm0,4.1v1h-.8v-1Z" style="fill:#263238"></path><path d="M307,39.09a1.23,1.23,0,0,1,1.12-.63c1,0,1.4.71,1.4,1.79v1.47c0,1.16-.54,1.91-1.7,1.91s-1.69-.75-1.69-1.91v-.5h.79v.56c0,.68.28,1.09.88,1.09s.88-.41.88-1.09V40.31c0-.67-.28-1.08-.88-1.08a.82.82,0,0,0-.85.8v.18h-.78l.2-4.19h3v.75h-2.22Z" style="fill:#263238"></path><path d="M313.73,37.83V38H313v-.2c0-.67-.28-1.07-.9-1.07s-.91.41-.91,1.21V39.6a1.21,1.21,0,0,1,1.22-.8c1,0,1.4.7,1.4,1.78v1.14c0,1.16-.58,1.91-1.73,1.91s-1.73-.75-1.73-1.91V37.88c0-1.19.54-1.94,1.73-1.94S313.73,36.68,313.73,37.83Zm-2.59,2.82v1.13c0,.68.28,1.09.89,1.09s.9-.41.9-1.09V40.65c0-.68-.29-1.09-.9-1.09S311.14,40,311.14,40.65Z" style="fill:#263238"></path><rect x="393.88" y="38.16" width="2.13" height="5.32" style="fill:#263238"></rect><rect x="396.72" y="37.09" width="2.13" height="6.39" style="fill:#263238"></rect><rect x="399.55" y="36.34" width="2.13" height="7.14" style="fill:#263238"></rect><rect x="402.39" y="35.02" width="2.13" height="8.46" style="fill:#263238"></rect><path d="M430.85,43.33H418.08v-7.8h12.77Zm-12.06-.71h11.35V36.24H418.79Z" style="fill:#263238"></path><rect x="419.86" y="37.01" width="6.74" height="4.84" style="fill:#263238"></rect><rect x="430.41" y="38.51" width="1.61" height="1.84" style="fill:#263238"></rect><path d="M413.4,41.64a.51.51,0,0,1-.24-.07c-2.6-1.55-4.32-.11-4.39,0a.47.47,0,0,1-.67-.05.48.48,0,0,1,0-.67c.09-.08,2.29-2,5.51,0a.47.47,0,0,1,.16.65A.49.49,0,0,1,413.4,41.64Z" style="fill:#263238"></path><path d="M414.36,40a.5.5,0,0,1-.24-.06c-3.76-2.24-6.28-.08-6.31-.06a.47.47,0,1,1-.63-.71s3.08-2.64,7.43-.05a.47.47,0,0,1,.16.65A.48.48,0,0,1,414.36,40Z" style="fill:#263238"></path><path d="M415.24,38.18a.55.55,0,0,1-.25-.07c-4.76-2.83-7.92-.17-8.05,0a.47.47,0,0,1-.67-.05.47.47,0,0,1,0-.67s3.79-3.25,9.17-.05a.48.48,0,0,1,.17.65A.49.49,0,0,1,415.24,38.18Z" style="fill:#263238"></path><path d="M412,42.43a1.2,1.2,0,1,1-1.2-1.19A1.2,1.2,0,0,1,412,42.43Z" style="fill:#263238"></path><rect x="295.43" y="110.19" width="142.46" height="91.17" style="fill:#fff;stroke:#263238;stroke-linecap:round;stroke-linejoin:round"></rect><rect x="295.43" y="191.21" width="142.46" height="10.16" style="fill:#fff;stroke:#263238;stroke-linecap:round;stroke-linejoin:round"></rect><rect x="295.43" y="194.81" width="142.46" height="2.96" style="fill:#fff;stroke:#263238;stroke-linecap:round;stroke-linejoin:round"></rect><path d="M297.72,100.36l.22-12.75h2.75l1.58,8,1.68-8h2.67l.22,12.75H305l-.21-8.64-1.62,8.64H301.5l-1.7-8.71-.18,8.71Z" style="fill:#263238"></path><path d="M310.29,100.36v-5l-2.49-7.7h2.44l1.37,4.48,1.27-4.48h2.37l-2.46,7.7v5Z" style="fill:#263238"></path><path d="M323.72,100.54a4.09,4.09,0,0,1-2.25-.54,2.81,2.81,0,0,1-1.15-1.49A6.72,6.72,0,0,1,320,96.3V91.72a7,7,0,0,1,.33-2.28A2.73,2.73,0,0,1,321.47,88a4.19,4.19,0,0,1,2.25-.52,4.33,4.33,0,0,1,2.15.45,2.5,2.5,0,0,1,1.1,1.3,5.21,5.21,0,0,1,.32,1.93V92.2h-2.52V91a7.21,7.21,0,0,0,0-.83,1.13,1.13,0,0,0-.26-.63,1,1,0,0,0-.74-.24,1,1,0,0,0-.75.25,1.16,1.16,0,0,0-.3.65,6.13,6.13,0,0,0-.06.89v5.8a5,5,0,0,0,.08.93,1.12,1.12,0,0,0,.33.62,1.06,1.06,0,0,0,.7.21.92.92,0,0,0,.72-.24,1.28,1.28,0,0,0,.27-.66,5.94,5.94,0,0,0,0-.86V95.65h2.52v1.06a5.8,5.8,0,0,1-.31,2,2.63,2.63,0,0,1-1.09,1.35A4,4,0,0,1,323.72,100.54Z" style="fill:#263238"></path><path d="M332.44,100.54a4.19,4.19,0,0,1-2.22-.51,2.8,2.8,0,0,1-1.17-1.44,6.46,6.46,0,0,1-.35-2.24V91.59a6.46,6.46,0,0,1,.35-2.24,2.73,2.73,0,0,1,1.17-1.41,4.3,4.3,0,0,1,2.22-.49,4.37,4.37,0,0,1,2.25.49,2.8,2.8,0,0,1,1.18,1.42,6.17,6.17,0,0,1,.36,2.23v4.76a6.23,6.23,0,0,1-.36,2.24,2.77,2.77,0,0,1-1.18,1.44A4.26,4.26,0,0,1,332.44,100.54Zm0-1.88a1,1,0,0,0,.75-.23,1.15,1.15,0,0,0,.31-.61,4.33,4.33,0,0,0,.08-.83V91a4.22,4.22,0,0,0-.08-.82,1.22,1.22,0,0,0-.31-.61,1.07,1.07,0,0,0-.75-.22,1,1,0,0,0-.7.22,1.16,1.16,0,0,0-.32.61,4.22,4.22,0,0,0-.08.82v6a5.35,5.35,0,0,0,.07.83,1.08,1.08,0,0,0,.31.61A1,1,0,0,0,332.44,98.66Z" style="fill:#263238"></path><path d="M341.55,100.54a4.26,4.26,0,0,1-2.25-.5,2.61,2.61,0,0,1-1.13-1.43,7,7,0,0,1-.32-2.28V87.61h2.56v9.08a7,7,0,0,0,.07.93,1.48,1.48,0,0,0,.32.74.93.93,0,0,0,.75.29,1,1,0,0,0,.76-.29,1.39,1.39,0,0,0,.31-.74,7,7,0,0,0,.06-.93V87.61h2.57v8.72a7.24,7.24,0,0,1-.32,2.28A2.65,2.65,0,0,1,343.8,100,4.31,4.31,0,0,1,341.55,100.54Z" style="fill:#263238"></path><path d="M347.06,100.36V87.61h3.31a7.18,7.18,0,0,1,2.21.29,2.55,2.55,0,0,1,1.42,1,3.63,3.63,0,0,1,.49,2,6.44,6.44,0,0,1-.13,1.39,2.72,2.72,0,0,1-.47,1,2.39,2.39,0,0,1-1,.72l1.77,6.22H352l-1.47-5.78h-.91v5.78Zm2.6-7.32h.75a2,2,0,0,0,1-.21,1.09,1.09,0,0,0,.51-.62,3.07,3.07,0,0,0,.15-1,2.4,2.4,0,0,0-.32-1.35,1.38,1.38,0,0,0-1.21-.46h-.88Z" style="fill:#263238"></path><path d="M359.5,100.54a4,4,0,0,1-2-.44,2.79,2.79,0,0,1-1.19-1.3,6.22,6.22,0,0,1-.46-2.23l2.24-.38a6.41,6.41,0,0,0,.16,1.31,1.59,1.59,0,0,0,.41.79,1,1,0,0,0,.69.26.72.72,0,0,0,.68-.31,1.46,1.46,0,0,0,.18-.73,2.3,2.3,0,0,0-.38-1.34,6.4,6.4,0,0,0-1-1.1l-1.32-1.15a5.27,5.27,0,0,1-1.16-1.35,3.61,3.61,0,0,1-.45-1.86,3.13,3.13,0,0,1,.92-2.42,3.63,3.63,0,0,1,2.53-.84,3.4,3.4,0,0,1,1.57.31,2.41,2.41,0,0,1,1,.85,3.53,3.53,0,0,1,.47,1.15,8.66,8.66,0,0,1,.17,1.23l-2.23.33a8.8,8.8,0,0,0-.1-1,1.29,1.29,0,0,0-.28-.69.88.88,0,0,0-1.32.08,1.43,1.43,0,0,0-.22.75,1.92,1.92,0,0,0,.31,1.11,6.18,6.18,0,0,0,.84.91l1.29,1.13a7.16,7.16,0,0,1,1.38,1.58,3.94,3.94,0,0,1,.58,2.2,3.25,3.25,0,0,1-.41,1.62,3,3,0,0,1-1.14,1.14A3.54,3.54,0,0,1,359.5,100.54Z" style="fill:#263238"></path><path d="M363.94,100.36V87.61h5.56V89.4h-3v3.39h2.29V94.6h-2.29v4h3v1.76Z" style="fill:#263238"></path><path d="M297.12,218.93V208.87h1.38v10.06Z" style="fill:#263238"></path><path d="M300.13,218.93V208.87h.95l2.86,6.68v-6.68h1.17v10.06h-.9l-2.89-6.87v6.87Z" style="fill:#263238"></path><path d="M307.79,218.93v-9h-1.7v-1h4.76v1H309.2v9Z" style="fill:#263238"></path><path d="M311.82,218.93V208.87h2a4.46,4.46,0,0,1,1.67.27,1.81,1.81,0,0,1,1,.85,3.31,3.31,0,0,1,.32,1.55,3.9,3.9,0,0,1-.13,1.06,2,2,0,0,1-.39.81,1.64,1.64,0,0,1-.72.48l1.42,5h-1.35l-1.32-4.72h-1.09v4.72Zm1.4-5.73h.53a2.62,2.62,0,0,0,1-.14,1,1,0,0,0,.55-.51,2.33,2.33,0,0,0,.17-1,2,2,0,0,0-.32-1.27,1.61,1.61,0,0,0-1.28-.39h-.62Z" style="fill:#263238"></path><path d="M320.84,219a3,3,0,0,1-1.63-.39,2.17,2.17,0,0,1-.87-1.14,5,5,0,0,1-.26-1.73V212a5.13,5.13,0,0,1,.26-1.71,2.15,2.15,0,0,1,.87-1.09,3.1,3.1,0,0,1,1.63-.38,2.93,2.93,0,0,1,1.61.39,2.09,2.09,0,0,1,.86,1.09,4.77,4.77,0,0,1,.27,1.7v3.83a5,5,0,0,1-.27,1.71,2.21,2.21,0,0,1-.86,1.14A2.84,2.84,0,0,1,320.84,219Zm0-1.1a1.33,1.33,0,0,0,.84-.23,1.19,1.19,0,0,0,.39-.65,4.64,4.64,0,0,0,.09-1v-4.41a4.51,4.51,0,0,0-.09-1,1.15,1.15,0,0,0-.39-.62,1.41,1.41,0,0,0-.84-.21,1.48,1.48,0,0,0-.86.21,1.15,1.15,0,0,0-.39.62,4.45,4.45,0,0,0-.1,1v4.41a4.59,4.59,0,0,0,.1,1,1.19,1.19,0,0,0,.39.65A1.4,1.4,0,0,0,320.84,217.94Z" style="fill:#263238"></path><path d="M325,218.93V208.87h2.19a3.85,3.85,0,0,1,1.77.34,2,2,0,0,1,.93,1,4.61,4.61,0,0,1,.28,1.7v3.7a5.23,5.23,0,0,1-.28,1.8,2.14,2.14,0,0,1-.91,1.11,3.17,3.17,0,0,1-1.68.38Zm1.4-1h.8a1.58,1.58,0,0,0,1.09-.3,1.31,1.31,0,0,0,.39-.87,10.9,10.9,0,0,0,.07-1.38v-3.27a6.33,6.33,0,0,0-.1-1.27,1,1,0,0,0-.43-.7,2,2,0,0,0-1.06-.23h-.76Z" style="fill:#263238"></path><path d="M334.1,219a2.75,2.75,0,0,1-1.67-.43,2.18,2.18,0,0,1-.8-1.22,7.3,7.3,0,0,1-.21-1.85v-6.67h1.34v6.73a7.08,7.08,0,0,0,.09,1.18,1.56,1.56,0,0,0,.38.85,1.15,1.15,0,0,0,.87.31,1.2,1.2,0,0,0,.89-.31,1.63,1.63,0,0,0,.37-.85,7.14,7.14,0,0,0,.08-1.18v-6.73h1.33v6.67a7.3,7.3,0,0,1-.21,1.85,2.16,2.16,0,0,1-.79,1.22A2.73,2.73,0,0,1,334.1,219Z" style="fill:#263238"></path><path d="M340.77,219a2.72,2.72,0,0,1-1.65-.44,2.25,2.25,0,0,1-.82-1.21,5.57,5.57,0,0,1-.23-1.69v-3.55a6,6,0,0,1,.23-1.78,2.12,2.12,0,0,1,.82-1.17,3.42,3.42,0,0,1,3.15-.07,1.92,1.92,0,0,1,.8,1,4.49,4.49,0,0,1,.24,1.56v.79H342v-.71a7.05,7.05,0,0,0-.06-1,1.07,1.07,0,0,0-.3-.67,1.18,1.18,0,0,0-.83-.23,1.24,1.24,0,0,0-.87.25,1.3,1.3,0,0,0-.36.72,6.85,6.85,0,0,0-.08,1.09v4a4.21,4.21,0,0,0,.13,1.19,1,1,0,0,0,.41.63,1.33,1.33,0,0,0,.77.19,1.12,1.12,0,0,0,.82-.26,1.23,1.23,0,0,0,.31-.7,7.89,7.89,0,0,0,.06-1v-.75h1.33v.75a5.67,5.67,0,0,1-.22,1.62,2,2,0,0,1-.78,1.09A2.59,2.59,0,0,1,340.77,219Z" style="fill:#263238"></path><path d="M345.76,218.93v-9h-1.71v-1h4.76v1h-1.65v9Z" style="fill:#263238"></path><path d="M349.85,218.93V208.87h1.38v10.06Z" style="fill:#263238"></path><path d="M355.43,219a2.94,2.94,0,0,1-1.62-.39,2.17,2.17,0,0,1-.87-1.14,5,5,0,0,1-.26-1.73V212a4.88,4.88,0,0,1,.26-1.71,2.15,2.15,0,0,1,.87-1.09,3,3,0,0,1,1.62-.38,2.94,2.94,0,0,1,1.62.39,2.14,2.14,0,0,1,.86,1.09,4.77,4.77,0,0,1,.27,1.7v3.83a5,5,0,0,1-.27,1.71,2.26,2.26,0,0,1-.86,1.14A2.86,2.86,0,0,1,355.43,219Zm0-1.1a1.35,1.35,0,0,0,.85-.23,1.12,1.12,0,0,0,.38-.65,4,4,0,0,0,.1-1v-4.41a3.91,3.91,0,0,0-.1-1,1.08,1.08,0,0,0-.38-.62,1.42,1.42,0,0,0-.85-.21,1.46,1.46,0,0,0-.85.21,1.15,1.15,0,0,0-.39.62,3.91,3.91,0,0,0-.1,1v4.41a4,4,0,0,0,.1,1,1.19,1.19,0,0,0,.39.65A1.39,1.39,0,0,0,355.43,217.94Z" style="fill:#263238"></path><path d="M359.56,218.93V208.87h.95l2.86,6.68v-6.68h1.17v10.06h-.9l-2.89-6.87v6.87Z" style="fill:#263238"></path><path d="M302.3,128.79v-9.53h2.19a4.13,4.13,0,0,1,1.12.14,2,2,0,0,1,.79.44,1.66,1.66,0,0,1,.47.75,3.07,3.07,0,0,1,.16,1.06,3.13,3.13,0,0,1-.15,1,1.47,1.47,0,0,1-.45.67,1.5,1.5,0,0,1-.77.32,2,2,0,0,1,.93.44,1.94,1.94,0,0,1,.53.8,3.7,3.7,0,0,1,.17,1.17,4.35,4.35,0,0,1-.14,1.12,2.35,2.35,0,0,1-.45.86,2,2,0,0,1-.76.55,3,3,0,0,1-1.1.19Zm1.33-5.55h.79a2.1,2.1,0,0,0,.88-.16.89.89,0,0,0,.44-.51,2.64,2.64,0,0,0,.13-.92,1.66,1.66,0,0,0-.2-1,.88.88,0,0,0-.62-.37,6.45,6.45,0,0,0-1.1-.08h-.32Zm0,4.6h.89a1.4,1.4,0,0,0,1.2-.42,2.36,2.36,0,0,0,.3-1.35,2.87,2.87,0,0,0-.16-1,1.19,1.19,0,0,0-.51-.61,1.78,1.78,0,0,0-.93-.21h-.79Z" style="fill:#263238"></path><path d="M310.92,128.89a2.6,2.6,0,0,1-1.59-.41,2,2,0,0,1-.75-1.16,6.88,6.88,0,0,1-.2-1.74v-6.32h1.27v6.38a7.41,7.41,0,0,0,.08,1.11,1.52,1.52,0,0,0,.36.8,1.07,1.07,0,0,0,.83.3,1.09,1.09,0,0,0,.84-.3,1.52,1.52,0,0,0,.35-.8,7.41,7.41,0,0,0,.08-1.11v-6.38h1.26v6.32a6.88,6.88,0,0,1-.2,1.74,2,2,0,0,1-.75,1.16A2.54,2.54,0,0,1,310.92,128.89Z" style="fill:#263238"></path><path d="M317.09,128.89a2.47,2.47,0,0,1-1.37-.35,2.25,2.25,0,0,1-.83-1,4.24,4.24,0,0,1-.32-1.45l1.17-.32a6.26,6.26,0,0,0,.16,1,1.73,1.73,0,0,0,.41.77,1,1,0,0,0,.78.3,1,1,0,0,0,.79-.29,1.21,1.21,0,0,0,.26-.83,1.73,1.73,0,0,0-.29-1,6,6,0,0,0-.74-.79l-1.6-1.42a2.62,2.62,0,0,1-.7-.89,2.91,2.91,0,0,1-.22-1.21,2.13,2.13,0,0,1,.6-1.62,2.23,2.23,0,0,1,1.63-.58,3,3,0,0,1,1,.15,1.8,1.8,0,0,1,.71.45,2,2,0,0,1,.46.77,4.1,4.1,0,0,1,.23,1.09l-1.13.3a4.42,4.42,0,0,0-.14-.86,1.32,1.32,0,0,0-.37-.64,1.08,1.08,0,0,0-.76-.24,1.06,1.06,0,0,0-.77.27,1,1,0,0,0-.27.78,1.68,1.68,0,0,0,.14.72,2,2,0,0,0,.48.57L318,124a4.73,4.73,0,0,1,.95,1.12,2.79,2.79,0,0,1,.42,1.55,2.34,2.34,0,0,1-.3,1.21,1.94,1.94,0,0,1-.8.78A2.54,2.54,0,0,1,317.09,128.89Z" style="fill:#263238"></path><path d="M320.48,128.79v-9.53h1.31v9.53Z" style="fill:#263238"></path><path d="M323.33,128.79v-9.53h.9l2.71,6.33v-6.33H328v9.53h-.84l-2.74-6.5v6.5Z" style="fill:#263238"></path><path d="M329.54,128.79v-9.53h3.69v1h-2.36v3.15h1.91v.94h-1.91v3.5h2.38v.95Z" style="fill:#263238"></path><path d="M336.57,128.89a2.43,2.43,0,0,1-1.37-.35,2.25,2.25,0,0,1-.83-1,4,4,0,0,1-.33-1.45l1.18-.32a4.56,4.56,0,0,0,.16,1,1.72,1.72,0,0,0,.4.77,1,1,0,0,0,.79.3,1,1,0,0,0,.78-.29,1.17,1.17,0,0,0,.27-.83,1.67,1.67,0,0,0-.3-1,4.87,4.87,0,0,0-.74-.79l-1.6-1.42a2.72,2.72,0,0,1-.69-.89,2.9,2.9,0,0,1-.23-1.21,2.13,2.13,0,0,1,.61-1.62,2.23,2.23,0,0,1,1.63-.58,3,3,0,0,1,1,.15,1.77,1.77,0,0,1,.72.45,2.16,2.16,0,0,1,.46.77,4.54,4.54,0,0,1,.23,1.09l-1.13.3a4.42,4.42,0,0,0-.14-.86,1.41,1.41,0,0,0-.37-.64,1.1,1.1,0,0,0-.76-.24,1,1,0,0,0-.77.27,1,1,0,0,0-.28.78,1.54,1.54,0,0,0,.15.72,2,2,0,0,0,.48.57l1.61,1.42a4.73,4.73,0,0,1,.95,1.12,2.87,2.87,0,0,1,.41,1.55,2.43,2.43,0,0,1-.29,1.21,2,2,0,0,1-.81.78A2.48,2.48,0,0,1,336.57,128.89Z" style="fill:#263238"></path><path d="M342.13,128.89a2.45,2.45,0,0,1-1.37-.35,2.25,2.25,0,0,1-.83-1,4,4,0,0,1-.33-1.45l1.18-.32a5.28,5.28,0,0,0,.16,1,1.82,1.82,0,0,0,.4.77,1,1,0,0,0,.79.3,1,1,0,0,0,.78-.29,1.17,1.17,0,0,0,.27-.83,1.67,1.67,0,0,0-.3-1,4.87,4.87,0,0,0-.74-.79l-1.6-1.42a2.72,2.72,0,0,1-.69-.89,2.91,2.91,0,0,1-.22-1.21,2.13,2.13,0,0,1,.6-1.62,2.23,2.23,0,0,1,1.63-.58,3,3,0,0,1,1,.15,1.8,1.8,0,0,1,.71.45,2.16,2.16,0,0,1,.46.77,4.1,4.1,0,0,1,.23,1.09l-1.13.3a4.42,4.42,0,0,0-.14-.86,1.32,1.32,0,0,0-.37-.64,1.1,1.1,0,0,0-.76-.24,1.06,1.06,0,0,0-.77.27,1,1,0,0,0-.27.78,1.54,1.54,0,0,0,.14.72,2,2,0,0,0,.48.57l1.61,1.42a4.73,4.73,0,0,1,.95,1.12,2.78,2.78,0,0,1,.41,1.55,2.33,2.33,0,0,1-.29,1.21,2,2,0,0,1-.81.78A2.48,2.48,0,0,1,342.13,128.89Z" style="fill:#263238"></path><path d="M304.69,143a2.49,2.49,0,0,1-1.57-.43,2.16,2.16,0,0,1-.78-1.14,5.63,5.63,0,0,1-.22-1.6v-3.36a6,6,0,0,1,.22-1.68,2,2,0,0,1,.78-1.11,3.23,3.23,0,0,1,3-.07,1.92,1.92,0,0,1,.76.94,4.28,4.28,0,0,1,.23,1.47v.76h-1.26v-.67a6.46,6.46,0,0,0-.06-.94,1,1,0,0,0-.28-.63,1.13,1.13,0,0,0-.79-.22,1.16,1.16,0,0,0-.82.24,1.13,1.13,0,0,0-.34.68,6.25,6.25,0,0,0-.08,1v3.78a4.28,4.28,0,0,0,.12,1.13,1,1,0,0,0,.39.59,1.29,1.29,0,0,0,.73.18,1,1,0,0,0,.77-.24,1.13,1.13,0,0,0,.3-.66,7.31,7.31,0,0,0,.06-1v-.71h1.26v.71a4.75,4.75,0,0,1-.22,1.53,1.93,1.93,0,0,1-.73,1A2.5,2.5,0,0,1,304.69,143Z" style="fill:#263238"></path><path d="M310.79,143a2.78,2.78,0,0,1-1.54-.38,2.06,2.06,0,0,1-.82-1.07,4.85,4.85,0,0,1-.25-1.65V136.3a4.58,4.58,0,0,1,.25-1.61,2.05,2.05,0,0,1,.83-1,3.39,3.39,0,0,1,3.06,0,2.05,2.05,0,0,1,.82,1,4.58,4.58,0,0,1,.25,1.61v3.63a4.67,4.67,0,0,1-.25,1.62,2.18,2.18,0,0,1-.82,1.08A2.75,2.75,0,0,1,310.79,143Zm0-1a1.23,1.23,0,0,0,.8-.22,1,1,0,0,0,.36-.61,3.6,3.6,0,0,0,.1-.92V136a3.52,3.52,0,0,0-.1-.91,1,1,0,0,0-.36-.59,1.7,1.7,0,0,0-1.6,0,1.05,1.05,0,0,0-.38.59,4.06,4.06,0,0,0-.09.91v4.18a4.15,4.15,0,0,0,.09.92,1.07,1.07,0,0,0,.38.61A1.23,1.23,0,0,0,310.79,142Z" style="fill:#263238"></path><path d="M314.67,142.9l.18-9.52h1.3l1.69,7.72,1.69-7.72h1.29l.18,9.52h-1.07l-.11-6.91-1.61,6.91h-.75l-1.6-6.91-.11,6.91Z" style="fill:#263238"></path><path d="M322.43,142.9l.18-9.52h1.31l1.68,7.72,1.69-7.72h1.29l.18,9.52h-1.07l-.11-6.91L326,142.9h-.75l-1.6-6.91-.1,6.91Z" style="fill:#263238"></path><path d="M332.68,143a2.67,2.67,0,0,1-1.59-.41,2,2,0,0,1-.75-1.16,6.53,6.53,0,0,1-.2-1.75v-6.31h1.27v6.37a6.48,6.48,0,0,0,.08,1.12,1.45,1.45,0,0,0,.36.8,1.33,1.33,0,0,0,1.66,0,1.51,1.51,0,0,0,.35-.8,6.43,6.43,0,0,0,.09-1.12v-6.37h1.26v6.31a6.51,6.51,0,0,1-.21,1.75,2.08,2.08,0,0,1-.74,1.16A2.63,2.63,0,0,1,332.68,143Z" style="fill:#263238"></path><path d="M336.6,142.9v-9.52h.91l2.71,6.32v-6.32h1.1v9.52h-.85l-2.74-6.5v6.5Z" style="fill:#263238"></path><path d="M342.89,142.9v-9.52h1.3v9.52Z" style="fill:#263238"></path><path d="M348.12,143a2.49,2.49,0,0,1-1.57-.43,2.21,2.21,0,0,1-.78-1.14,5.63,5.63,0,0,1-.22-1.6v-3.36a6,6,0,0,1,.22-1.68,2.06,2.06,0,0,1,.78-1.11,2.62,2.62,0,0,1,1.57-.4,2.66,2.66,0,0,1,1.42.33,2,2,0,0,1,.75.94,4.28,4.28,0,0,1,.23,1.47v.76h-1.26v-.67a8.47,8.47,0,0,0-.05-.94,1.09,1.09,0,0,0-.29-.63,1.13,1.13,0,0,0-.79-.22,1.16,1.16,0,0,0-.82.24,1.13,1.13,0,0,0-.34.68,6.25,6.25,0,0,0-.08,1v3.78a4.28,4.28,0,0,0,.12,1.13,1,1,0,0,0,.39.59,1.29,1.29,0,0,0,.73.18,1.07,1.07,0,0,0,.78-.24,1.19,1.19,0,0,0,.29-.66,7.31,7.31,0,0,0,.06-1v-.71h1.26v.71a5.05,5.05,0,0,1-.21,1.53,2,2,0,0,1-.73,1A2.56,2.56,0,0,1,348.12,143Z" style="fill:#263238"></path><path d="M351.27,142.9l2-9.52h1.29l2,9.52h-1.26l-.43-2.4H353l-.46,2.4Zm1.88-3.35h1.59l-.8-4.29Z" style="fill:#263238"></path><path d="M358.24,142.9v-8.54h-1.61v-1h4.51v1h-1.57v8.54Z" style="fill:#263238"></path><path d="M362.13,142.9v-9.52h1.3v9.52Z" style="fill:#263238"></path><path d="M367.41,143a2.82,2.82,0,0,1-1.55-.38,2.11,2.11,0,0,1-.82-1.07,5.11,5.11,0,0,1-.25-1.65V136.3a4.57,4.57,0,0,1,.26-1.61,2,2,0,0,1,.82-1,2.85,2.85,0,0,1,1.54-.36,2.78,2.78,0,0,1,1.52.37,2.05,2.05,0,0,1,.82,1,4.58,4.58,0,0,1,.25,1.61v3.63a4.67,4.67,0,0,1-.25,1.62,2.18,2.18,0,0,1-.82,1.08A2.69,2.69,0,0,1,367.41,143Zm0-1a1.2,1.2,0,0,0,.79-.22,1,1,0,0,0,.37-.61,4.15,4.15,0,0,0,.09-.92V136a4.06,4.06,0,0,0-.09-.91,1,1,0,0,0-.37-.59,1.33,1.33,0,0,0-.79-.2,1.38,1.38,0,0,0-.81.2,1,1,0,0,0-.37.59,4.06,4.06,0,0,0-.09.91v4.18a4.15,4.15,0,0,0,.09.92,1.06,1.06,0,0,0,.37.61A1.24,1.24,0,0,0,367.41,142Z" style="fill:#263238"></path><path d="M371.31,142.9v-9.52h.91l2.7,6.32v-6.32H376v9.52h-.85l-2.74-6.5v6.5Z" style="fill:#263238"></path><line x1="408.07" y1="232.12" x2="433.99" y2="232.12" style="fill:none;stroke:#263238;stroke-miterlimit:10"></line><line x1="349.76" y1="232.12" x2="403.09" y2="232.12" style="fill:none;stroke:#263238;stroke-miterlimit:10"></line><line x1="297.92" y1="232.12" x2="344.77" y2="232.12" style="fill:none;stroke:#263238;stroke-miterlimit:10"></line><line x1="332.31" y1="239.6" x2="433.99" y2="239.6" style="fill:none;stroke:#263238;stroke-miterlimit:10"></line><line x1="297.92" y1="239.6" x2="327.82" y2="239.6" style="fill:none;stroke:#263238;stroke-miterlimit:10"></line><line x1="419.54" y1="247.08" x2="433.99" y2="247.08" style="fill:none;stroke:#263238;stroke-miterlimit:10"></line><line x1="352.25" y1="247.08" x2="414.55" y2="247.08" style="fill:none;stroke:#263238;stroke-miterlimit:10"></line><line x1="297.92" y1="247.08" x2="346.77" y2="247.08" style="fill:none;stroke:#263238;stroke-miterlimit:10"></line><line x1="426.52" y1="254.55" x2="433.99" y2="254.55" style="fill:none;stroke:#263238;stroke-miterlimit:10"></line><line x1="406.58" y1="254.55" x2="421.53" y2="254.55" style="fill:none;stroke:#263238;stroke-miterlimit:10"></line><line x1="332.81" y1="254.55" x2="402.59" y2="254.55" style="fill:none;stroke:#263238;stroke-miterlimit:10"></line><line x1="297.92" y1="254.55" x2="328.32" y2="254.55" style="fill:none;stroke:#263238;stroke-miterlimit:10"></line><polygon points="422.03 119.69 400.6 127.67 408.57 131.16 395.61 148.11 386.14 137.64 352.75 170.54 332.81 159.07 301.2 187.33 325.41 187.33 335.8 175.52 354.74 184.99 383.15 153.09 399.6 160.07 413.56 134.15 423.03 139.13 422.03 119.69" style="fill:#263238;stroke:#263238;stroke-linecap:round;stroke-linejoin:round"></polygon><circle cx="405.51" cy="164.69" r="19.68" transform="translate(2.32 334.98) rotate(-45)" style="fill:#fff;stroke:#263238;stroke-linecap:round;stroke-linejoin:round"></circle><circle cx="405.51" cy="164.69" r="16.95" style="fill:#fff;stroke:#263238;stroke-linecap:round;stroke-linejoin:round"></circle><path d="M405.89,180.44v-3a6.14,6.14,0,0,1-4.63-2q-1.54-1.85-1.66-5.68l4.58-.68a11.63,11.63,0,0,0,.27,2.51,2.71,2.71,0,0,0,.7,1.38,1.63,1.63,0,0,0,1.13.42,1.07,1.07,0,0,0,1.09-.57,2.9,2.9,0,0,0,.25-1.2,4.38,4.38,0,0,0-.7-2.53,10.75,10.75,0,0,0-1.93-2.08l-2.13-1.83a17,17,0,0,1-1.63-1.66,6.93,6.93,0,0,1-1.18-2,7.19,7.19,0,0,1-.45-2.68,6,6,0,0,1,1.63-4.46,6.72,6.72,0,0,1,4.39-1.83v-2.84h1.52v2.81a5.55,5.55,0,0,1,2.79.79,4.57,4.57,0,0,1,1.57,1.74,7.61,7.61,0,0,1,.72,2.19,15.55,15.55,0,0,1,.22,2.14l-4.64.56c0-.71-.06-1.34-.13-1.88a2.69,2.69,0,0,0-.42-1.24,1.09,1.09,0,0,0-1-.41,1.19,1.19,0,0,0-1.11.63,2.52,2.52,0,0,0-.36,1.26,3.5,3.5,0,0,0,.73,2.32,16.71,16.71,0,0,0,1.6,1.66l2,1.77a18.26,18.26,0,0,1,1.87,2,8.8,8.8,0,0,1,1.36,2.34,8,8,0,0,1,.51,3,6.34,6.34,0,0,1-.66,2.9,5.5,5.5,0,0,1-1.88,2.15,6.5,6.5,0,0,1-2.94,1v3Z" style="fill:#263238"></path><rect x="302.9" y="164.9" width="4.98" height="22.43" style="fill:#92E3A9"></rect><rect x="311.87" y="172.96" width="4.98" height="14.36" style="fill:#92E3A9"></rect><rect x="320.85" y="173.45" width="4.98" height="13.88" style="fill:#92E3A9"></rect><rect x="329.82" y="164.9" width="4.98" height="22.43" style="fill:#92E3A9"></rect><rect x="338.79" y="169.79" width="4.98" height="17.54" style="fill:#92E3A9"></rect><rect x="347.76" y="171.99" width="4.98" height="15.34" style="fill:#92E3A9"></rect><rect x="356.73" y="164.9" width="4.98" height="22.43" style="fill:#92E3A9"></rect><rect x="365.71" y="158.3" width="4.98" height="29.03" style="fill:#92E3A9"></rect><rect x="374.68" y="151.46" width="4.98" height="35.87" style="fill:#92E3A9"></rect><rect x="340.6" y="276.89" width="58.06" height="5.81" style="fill:#263238;stroke:#263238;stroke-linecap:round;stroke-linejoin:round"></rect><rect x="340.6" y="287.18" width="76" height="5.81" style="fill:#263238;stroke:#263238;stroke-linecap:round;stroke-linejoin:round"></rect><rect x="340.6" y="321.62" width="58.06" height="5.81" style="fill:#263238;stroke:#263238;stroke-linecap:round;stroke-linejoin:round"></rect><rect x="340.6" y="331.91" width="76" height="5.81" style="fill:#263238;stroke:#263238;stroke-linecap:round;stroke-linejoin:round"></rect><rect x="297.31" y="267.18" width="33.4" height="33.7" rx="4.75" style="fill:#d4d4d4"></rect><circle cx="314.01" cy="284.03" r="8.37" style="fill:#263238"></circle><polygon points="318.86 284.21 311.58 280.01 311.58 288.42 318.86 284.21" style="fill:#fff"></polygon><rect x="297.31" y="310.69" width="33.4" height="33.7" rx="4.75" style="fill:#d4d4d4"></rect><circle cx="314.01" cy="327.54" r="8.37" transform="translate(-115.09 475.05) rotate(-65.18)" style="fill:#263238"></circle><polygon points="318.86 327.73 311.58 323.52 311.58 331.93 318.86 327.73" style="fill:#fff"></polygon><line x1="299.1" y1="305.66" x2="434.5" y2="305.66" style="fill:none;stroke:#263238;stroke-miterlimit:10"></line><line x1="429.3" y1="60.18" x2="439.87" y2="60.18" style="fill:#fff;stroke:#263238;stroke-linecap:round;stroke-linejoin:round"></line><line x1="429.3" y1="65.19" x2="439.87" y2="65.19" style="fill:#fff;stroke:#263238;stroke-linecap:round;stroke-linejoin:round"></line><line x1="429.3" y1="70.19" x2="439.87" y2="70.19" style="fill:#fff;stroke:#263238;stroke-linecap:round;stroke-linejoin:round"></line><rect x="296.26" y="56.85" width="128.8" height="16.68" style="fill:#fff;stroke:#263238;stroke-linecap:round;stroke-linejoin:round"></rect><path d="M311.56,62.44a3.95,3.95,0,1,0-3.94,3.94A3.94,3.94,0,0,0,311.56,62.44Z" style="fill:#fff;stroke:#263238;stroke-linecap:round;stroke-linejoin:round"></path><line x1="302.86" y1="67.97" x2="299.95" y2="71.64" style="fill:none;stroke:#263238;stroke-linecap:round;stroke-linejoin:round;stroke-width:2px"></line><line x1="304.99" y1="65.29" x2="302.86" y2="67.97" style="fill:none;stroke:#263238;stroke-linecap:round;stroke-linejoin:round"></line><line x1="315.72" y1="56.96" x2="315.72" y2="73.61" style="fill:#fff;stroke:#263238;stroke-linecap:round;stroke-linejoin:round"></line></g><g id="freepik--Plant--inject-103"><path d="M73.34,279.09h0a.09.09,0,0,0-.17-.07,125.09,125.09,0,0,0-6.61,20.71,192.48,192.48,0,0,0-3.65,21.47l-.51,5.43c-.08.91-.18,1.81-.25,2.72L62,332.06c-.07,1.82-.19,3.63-.24,5.45l.05,5.46.06,2.72c0,.91.11,1.82.17,2.72.14,1.82.25,3.63.41,5.44.35,3.62.9,7.21,1.45,10.79a.1.1,0,0,0,.1.08s.1,0,.09-.09h0c0-1.81-.08-3.62-.12-5.43s-.21-3.61-.19-5.42,0-3.61-.06-5.41l0-2.71,0-2.7,0-5.4.14-5.41.06-2.7c0-.9.1-1.8.15-2.7l.33-5.4a191.4,191.4,0,0,1,3.06-21.42A125.61,125.61,0,0,1,73.34,279.09Z" style="fill:#263238"></path><path d="M74.11,307.35a.09.09,0,0,0-.18-.06A129.74,129.74,0,0,0,70.09,321a127.15,127.15,0,0,0-2.28,14.11c-.48,4.73-1,9.47-1.07,14.22a117.29,117.29,0,0,0,.51,14.27.09.09,0,0,0,.08.08.1.1,0,0,0,.11-.08c.55-4.74.88-9.46,1.21-14.18s.38-9.46.69-14.18A125.51,125.51,0,0,1,71,321.2,131.21,131.21,0,0,1,74.11,307.35Z" style="fill:#263238"></path><path d="M89.78,317.29a.1.1,0,0,0-.13,0,47.77,47.77,0,0,0-10.48,9.14,42.09,42.09,0,0,0-4.09,5.69l-.84,1.59-.66,1.65A15,15,0,0,0,73,337c-.17.57-.36,1.13-.51,1.69a67.84,67.84,0,0,0-2.17,13.83,80,80,0,0,0,.52,13.92.11.11,0,0,0,.09.08.1.1,0,0,0,.1-.09l1.2-13.78A122.8,122.8,0,0,1,74,339.06c.13-.55.29-1.09.43-1.64a15.24,15.24,0,0,1,.48-1.63l.56-1.59.72-1.5a40.89,40.89,0,0,1,3.75-5.7,47.8,47.8,0,0,1,9.84-9.58h0A.09.09,0,0,0,89.78,317.29Z" style="fill:#263238"></path><path d="M82.2,335a15.22,15.22,0,0,0-4.76,5.73,33.3,33.3,0,0,0-2.67,7c-.19.6-.34,1.21-.47,1.82l-.43,1.83a33.17,33.17,0,0,0-.47,3.72c0,1.25-.05,2.5,0,3.75a31.58,31.58,0,0,0,.49,3.72s0,.07.07.07a.1.1,0,0,0,.12-.07,34.1,34.1,0,0,0,.66-3.67c.19-1.21.38-2.41.53-3.62s.33-2.4.43-3.61.25-2.42.51-3.6a32.44,32.44,0,0,1,2-6.95,15.39,15.39,0,0,1,4-6h0a.09.09,0,0,0,0-.13A.11.11,0,0,0,82.2,335Z" style="fill:#263238"></path><path d="M60.22,348.8c-.51-6.12-1.52-12.18-2.47-18.23s-2-12.09-3.12-18.11-2.35-12-3.64-18a.12.12,0,0,0-.11-.08.1.1,0,0,0-.08.12c1.05,6,2,12.07,2.89,18.13s1.78,12.1,2.54,18.17,1.33,12.15,2.1,18.21l2.23,18.21a.11.11,0,0,0,.09.08.09.09,0,0,0,.1-.09c.07-1.53.08-3.07.11-4.61s-.06-3.06-.09-4.6C60.72,354.91,60.46,351.86,60.22,348.8Z" style="fill:#263238"></path><path d="M56.56,348.71c-.33-2.42-.78-4.83-1.24-7.23l-.86-3.58c-.28-1.19-.54-2.38-.89-3.55a100.73,100.73,0,0,0-4.68-13.92l-.73-1.68-.82-1.65c-.52-1.1-1.14-2.16-1.74-3.23A27.31,27.31,0,0,0,41.19,308a.09.09,0,0,0-.13,0,.09.09,0,0,0,0,.13h0a26.93,26.93,0,0,1,4,6c.53,1.09,1.1,2.16,1.55,3.28l.72,1.66.64,1.7a100.4,100.4,0,0,1,4.07,13.92c.56,2.35.93,4.75,1.39,7.12l.57,3.59c.21,1.19.46,2.37.63,3.57.38,2.4.82,4.78,1.24,7.17s.81,4.8,1.31,7.2a.11.11,0,0,0,.1.08.1.1,0,0,0,.09-.1c0-2.44,0-4.89-.17-7.33S56.81,351.14,56.56,348.71Z" style="fill:#263238"></path><path d="M51.49,349c-1.13-3.21-2.44-6.35-3.87-9.43a84.64,84.64,0,0,0-4.87-8.93.1.1,0,0,0-.13,0,.09.09,0,0,0,0,.13A83.62,83.62,0,0,1,46.74,340c1.25,3.13,2.37,6.3,3.3,9.53s1.64,6.5,2.5,9.74,1.63,6.5,2.63,9.77a.11.11,0,0,0,.09.08.11.11,0,0,0,.1-.1,49,49,0,0,0-1-10.18A63.23,63.23,0,0,0,51.49,349Z" style="fill:#263238"></path><path d="M51.28,359.71a21.66,21.66,0,0,0-2.69-5.64,23.34,23.34,0,0,0-3.92-4.88,18.9,18.9,0,0,0-2.49-1.88A10.15,10.15,0,0,0,39.35,346a.09.09,0,0,0-.11,0,.1.1,0,0,0,0,.13h0A14.27,14.27,0,0,1,44,349.86a22,22,0,0,1,3.27,4.95c.93,1.76,1.41,3.7,2.21,5.51.36.93.71,1.86,1.13,2.79a22.45,22.45,0,0,0,1.23,2.83h0a.09.09,0,0,0,.08.05.09.09,0,0,0,.1-.09,21.79,21.79,0,0,0-.11-3.13C51.75,361.75,51.53,360.73,51.28,359.71Z" style="fill:#263238"></path><path d="M51.66,303.21A17.42,17.42,0,0,1,39.33,290.1C37,279.3,44.47,283.93,37.78,267S32.64,246.15,35,241.26s3.59-3.34,5.65,3.09S50.12,260.8,53,279.56,51.66,303.21,51.66,303.21Z" style="fill:#92E3A9"></path><path d="M71.45,285s-6.68-2.32-6.94-14.91,4.89-10,5.66-25.7,1.8-26.73,4.62-27,10.29,7.71,12.86,25.19-3.35,29-8.49,34.18S71.45,285,71.45,285Z" style="fill:#92E3A9"></path><path d="M48.06,318.37s-1.54-9.25-4.62-13.62S33.67,296.52,29.3,288s-9.25-12.59-9-.51S26,305.78,32.64,309.89,48.06,318.37,48.06,318.37Z" style="fill:#92E3A9"></path><path d="M45.24,334.31s-6.17-11.83-15.17-20.57S13.88,300.64,16.45,305s5.66,4.11,10,11.82,3.09,13.36,9.26,17.73S45.24,334.31,45.24,334.31Z" style="fill:#92E3A9"></path><path d="M44.47,349.47c-.26-.77-.52-6.43-9.26-11.05s-17-2.83-15.93-.52,6.42,6.17,11.82,8.49S44.47,349.47,44.47,349.47Z" style="fill:#92E3A9"></path><path d="M70.94,318.88s-3.86-4.88-1.8-15.16S75.82,296,81,290.61s4.12-6.17,9.26-11.82,9.76-8.74,11.82-6.43-1,9.51-4.11,13.63-8,6.16-10.28,11.3-1.29,13.37-7.2,17.22S70.94,318.88,70.94,318.88Z" style="fill:#92E3A9"></path><path d="M83.79,321.71S93,311.17,99.73,303.46s9.25-13.62,9.51-8.48,2.31,9.25-3.09,15.94S83.79,321.71,83.79,321.71Z" style="fill:#92E3A9"></path><path d="M78.91,338.67s-.26-4.11,14.39-13.62,20.82-11.31,19.28-7.45-8,7.71-14.91,14.65S78.91,338.67,78.91,338.67Z" style="fill:#92E3A9"></path><path d="M52.27,302.11s-3.43-18.44-7-31.55-5.91-21.07-5.91-21.07" style="fill:none;stroke:#263238;stroke-linecap:round;stroke-linejoin:round"></path><path d="M70.86,285.15s6.25-20,8.3-32.06-.25-21.08-1.28-26.48" style="fill:none;stroke:#263238;stroke-linecap:round;stroke-linejoin:round"></path><path d="M47.25,318a96.25,96.25,0,0,0-9.47-13.49c-5.65-6.68-10-10.28-12.59-16.71" style="fill:none;stroke:#263238;stroke-linecap:round;stroke-linejoin:round"></path><path d="M70.94,318.88s2.06-12.33,6.94-18.76,14.65-16.45,18.5-22.87" style="fill:none;stroke:#263238;stroke-linecap:round;stroke-linejoin:round"></path><path d="M43.86,349.19s-8.65-5.63-14.81-8.72" style="fill:none;stroke:#263238;stroke-linecap:round;stroke-linejoin:round"></path><path d="M93.38,401c-.57-15.59-17.9-26-17.9-26H48.92S31.59,385.4,31,401s19.64,72.79,19.64,72.79H73.74S94,416.59,93.38,401Z" style="fill:#263238;stroke:#263238;stroke-linecap:round;stroke-linejoin:round"></path><polygon points="78.9 359.67 45.01 359.67 48.92 375 74.99 375 78.9 359.67" style="fill:#263238;stroke:#263238;stroke-linecap:round;stroke-linejoin:round"></polygon></g><g id="freepik--Character--inject-103"><path d="M213.25,274.56s-8.77,9.3-8.77,12.22,1.06,9.84.53,12.49-22.32,19.4-22.32,19.4l6.64,16.74s17.8-28.16,23.12-35.6,11.16-15.15,11.69-19.14S215.64,273,213.25,274.56Z" style="fill:#d4d4d4;stroke:#263238;stroke-miterlimit:10"></path><path d="M214.71,343.55l25.83-10.18s16.82-19,29.7-32.92,29-10.74,29-.72-4.65,25-8.94,31.5-12.89,23.26-12.89,23.26,30.07,7.16,38.3,11.81S357,394.41,374,406.66c11.18,8,17.67,11.26,19.46,11.26.48,0,1.34-.08,2.36-.2,4.09-.48,9-4.79,12.52-7,4.83-3,12.22-7.15,16.52-7.6,6.8-.72,4.3,9.3-.71,16.46s-14,9.31-17.18,11.81-10,3.94-12.53,4.3-25.05-8.95-34.72-12.89-27.9-4.84-38.92-18a81.94,81.94,0,0,0-12.26-12.08s-59.77,2.5-70.51,3.58-35.43,1.79-45.81,1.79-15.67-4.11-15.67-4.11-4-5.56,2.07-14.5S214.71,343.55,214.71,343.55Z" style="fill:#6e6e6e;stroke:#263238;stroke-miterlimit:10"></path><path d="M424.15,419.63c5-7.16,7.51-17.18.71-16.46-4.3.45-11.69,4.61-16.52,7.6-3.51,2.16-8.43,6.47-12.52,7-1,.12-1.88.2-2.36.2-1.51,0-6.41-2.32-14.66-7.91-1.16,4.82-4.52,10.91-13.52,15.11,10.87,4.43,27.06,10.92,29.16,10.62,2.51-.36,9.31-1.79,12.53-4.3S419.14,426.79,424.15,419.63Z" style="fill:#d4d4d4;stroke:#263238;stroke-miterlimit:10"></path><path d="M424.15,419.63c5-7.16,7.51-17.18.71-16.46-4.3.45-11.69,4.61-16.52,7.6-3.51,2.16-8.43,6.47-12.52,7-1,.12-1.88.2-2.36.2a5.14,5.14,0,0,1-1.46-.34c1.22,2.9,2.3,9.11-6,15.67,4.32,1.57,7.6,2.61,8.47,2.49,2.51-.36,9.31-1.79,12.53-4.3S419.14,426.79,424.15,419.63Z" style="fill:#fff;stroke:#263238;stroke-miterlimit:10"></path><path d="M238.35,346.14a26.33,26.33,0,0,0-2.39-1.5" style="fill:none;stroke:#263238;stroke-miterlimit:10"></path><path d="M277.4,354.49l-32.4-1.9a28.23,28.23,0,0,0-4.61-4.87" style="fill:none;stroke:#263238;stroke-miterlimit:10"></path><path d="M219.6,360.3a16.42,16.42,0,0,1,4.79-3" style="fill:none;stroke:#263238;stroke-miterlimit:10"></path><path d="M210.29,370.67a72.81,72.81,0,0,1,6.42-7.67" style="fill:none;stroke:#263238;stroke-miterlimit:10"></path><path d="M213.91,360.91s-7.23,6.5-9,14.82" style="fill:none;stroke:#263238;stroke-miterlimit:10"></path><path d="M214.71,343.55a10.07,10.07,0,0,1-.57,2.86c-.58,1.73-4.3,16.08-14.35,28.41a83.72,83.72,0,0,1-23.24,19.23,213.72,213.72,0,0,1-33-31.85c-16.94-20.09-27-39.31-26.41-61.7s7.76-36.44,7.76-36.44l-.58-17.22c1.15-2.87,7.18-6.88,15.21-1.72s14.35,17.22,14.35,17.22l-1.15,6.88s3.44,2.3,5.45,3.45,9.47,7.74,16.07,16.06,13.49,33.3,14.64,39.61,10.62,7.45,10.62,7.45l9.75,5.18Z" style="fill:#92E3A9;stroke:#263238;stroke-miterlimit:10"></path><path d="M153.88,262.34l-1.15,6.88s-17.79-5.74-27.83-5.16l-.58-17.22c1.15-2.87,7.18-6.88,15.21-1.72S153.88,262.34,153.88,262.34Z" style="fill:#d4d4d4;stroke:#263238;stroke-miterlimit:10"></path><path d="M163.93,215.94s4.88,12.71,3.62,16a51.94,51.94,0,0,0-1.84,5.85s7.44,8.09,6,10.24-5.28,3.14-5.28,3.14-1,13.46-1.83,15.67-3.41,4.52-8.73,3-13.11-6.44-16-8.8-4.67-19.33-4.67-19.33l6-1.9s-1.45-7.39-.72-8.75,9-.39,7.58-5.47-4.37-7.16-2.71-9S163.93,215.94,163.93,215.94Z" style="fill:#d4d4d4;stroke:#263238;stroke-miterlimit:10"></path><path d="M165.33,256s-8.47.74-9.63-6.62" style="fill:none;stroke:#263238;stroke-miterlimit:10"></path><line x1="158.08" y1="248.77" x2="152.62" y2="251.02" style="fill:none;stroke:#263238;stroke-miterlimit:10"></line><path d="M161.63,238.13c-.26,1.49-1,2.6-1.61,2.49s-.91-1.4-.65-2.89,1-2.59,1.61-2.48S161.89,236.65,161.63,238.13Z" style="fill:#263238"></path><path d="M157.21,233.94s3.89-3.59,7.29-.6" style="fill:none;stroke:#263238;stroke-miterlimit:10"></path><path d="M170.4,215c-.37,3.13-6.47,1-6.47,1l-12.57,3.74s.26,5.22.14,8.68-7.31,5.79-7.31,5.79l-1,15.78-19-.78-2.73-6.38s-12-11.22-10.69-22.34c.8-6.81,5.92-13.45,14.16-17a32.4,32.4,0,0,1,9-2.37,40.58,40.58,0,0,1,10,.1C163.05,203.71,170.77,211.83,170.4,215Z" style="fill:#263238;stroke:#263238;stroke-miterlimit:10"></path><path d="M133.85,235.17l-7.17,4c-.3-.55-6.68-12.3-1.7-35.7a32.4,32.4,0,0,1,9-2.37c-2.9,11.21-3,19.46-2.43,24.61C132.19,232,133.84,235.14,133.85,235.17Z" style="fill:#fff;stroke:#263238;stroke-miterlimit:10"></path><circle cx="131.9" cy="242.83" r="11.77" transform="translate(-79.6 64.98) rotate(-21.43)" style="fill:#fff;stroke:#263238;stroke-miterlimit:10"></circle><path d="M136.37,299.07a206.39,206.39,0,0,0,14.06,32.42c9.19,16.93,23,35.3,28.13,34.15s34.14-51.08,36.15-55.38,5.17-10.62,5.17-10.62,6.6-4.88,7.17-6.89-.76-11.54-.76-11.54,3.5-4.6,2.36-6.61-3.07-1.38-5.07-.23-6.37,4.36-6.37,4.36a15.24,15.24,0,0,0,.12-6.84c-.86-3.15-3.48-2.09-3.77-.08s-.28,4-1.14,6a28.94,28.94,0,0,0-2.63,7.63c-.57,3.44-2.12,12.75-2.12,12.75s-15.89,17.74-20.2,22.06c-2.13,2.12-6.64,5.58-6.64,5.58l-11.74-23.34s-6-21.23-12.34-27a20.56,20.56,0,0,0-23-3.16" style="fill:#92E3A9;stroke:#263238;stroke-miterlimit:10"></path><path d="M217.38,286h0a1.47,1.47,0,0,1-1.16-1.75l7.07-33.05a1.47,1.47,0,0,1,1.7-1.13h0a1.47,1.47,0,0,1,1.16,1.75l-7.08,33A1.46,1.46,0,0,1,217.38,286Z" style="fill:#263238;stroke:#263238;stroke-miterlimit:10"></path><path d="M227.05,292.75c.57-2-.76-11.54-.76-11.54s3.5-4.6,2.36-6.61-3.07-1.38-5.07-.23-6.37,4.36-6.37,4.36a15.24,15.24,0,0,0,.12-6.84c-.86-3.15-3.48-2.09-3.77-.08s-.28,4-1.14,6a28.94,28.94,0,0,0-2.63,7.63c-.57,3.44-2.12,12.75-2.12,12.75s-2.68,3-6.14,6.82L213,313.46c.88-1.58,1.48-2.7,1.71-3.2,2-4.31,5.17-10.62,5.17-10.62S226.48,294.76,227.05,292.75Z" style="fill:#d4d4d4;stroke:#263238;stroke-miterlimit:10"></path><path d="M217.21,278.73s-3.3,2.6-4.25,4.6" style="fill:none;stroke:#263238;stroke-miterlimit:10"></path><path d="M279.83,305.65s-2.06,10.84,1.29,19.1,19.1,38.19,20.13,43.61-2.58,14.46.26,17.81,16.52,4.39,29.42,3.62,20.39-2.33,21.94-7.75,2.58-8.26-1.29-8.26-7.75.52-12.91-.51-16.51-7.49-18.06-8.52-2.84-4.13-2.84-4.13-3.61-10.58-7.23-35.36-1-35.35-12.64-39-25.11,11.28-27.66,14.16" style="fill:#6e6e6e;stroke:#263238;stroke-miterlimit:10"></path><path d="M352.87,382c1.55-5.42,2.58-8.26-1.29-8.26s-7.75.52-12.91-.51-16.51-7.49-18.06-8.52-2.84-4.13-2.84-4.13a133.48,133.48,0,0,1-3.53-14.13c-9.09-3.15-16,2.83-19.42,6.83,3.32,6.94,6,12.91,6.43,15,1,5.42-2.58,14.46.26,17.81s16.52,4.39,29.42,3.62S351.32,387.46,352.87,382Z" style="fill:#d4d4d4;stroke:#263238;stroke-miterlimit:10"></path><path d="M351.58,373.78c-3.87,0-7.75.52-12.91-.51s-16.51-7.49-18.06-8.52-2.84-4.13-2.84-4.13-.31-.9-.83-2.79c-9.18-.56-14.27,3.41-16.93,6.91a22.43,22.43,0,0,1,1.24,3.62c1,5.42-2.58,14.46.26,17.81s16.52,4.39,29.42,3.62,20.39-2.33,21.94-7.75S355.45,373.78,351.58,373.78Z" style="fill:#fff;stroke:#263238;stroke-miterlimit:10"></path><rect x="126.26" y="435.18" width="100.53" height="5.97" style="fill:#919191;stroke:#263238;stroke-miterlimit:10"></rect><path d="M213.85,404.32l32.54,64.62a3.15,3.15,0,0,1-2.81,4.56h0a3.14,3.14,0,0,1-2.75-1.63l-35.94-65.56Z" style="fill:#919191;stroke:#263238;stroke-miterlimit:10"></path><path d="M141,387.08,111.41,469.5a3.14,3.14,0,0,0,3.24,4.26h0a3.14,3.14,0,0,0,2.59-1.89l32.82-83.69Z" style="fill:#919191;stroke:#263238;stroke-miterlimit:10"></path><path d="M132.73,288.37s-13.93-18.91-19.9-17.92-12,43.3-5,71.67S139.21,399.81,173,408.8c39.32,10.45,72.87-8,73.16-11.44S209.87,379.94,132.73,288.37Z" style="fill:#d4d4d4"></path><path d="M173,408.8c39.32,10.45,72.87-8,73.16-11.44.12-1.45-6.12-4.7-19-14.54-64.53,2.29-102.1-23.25-118.9-38.89C115.87,371.72,139.93,400,173,408.8Z" style="opacity:0.29"></path><path d="M132.73,288.37s-13.93-18.91-19.9-17.92-12,43.3-5,71.67S139.21,399.81,173,408.8c39.32,10.45,72.87-8,73.16-11.44S209.87,379.94,132.73,288.37Z" style="fill:none;stroke:#263238;stroke-miterlimit:10"></path><path d="M424.86,432s-11.5-4.1-38.32-6-52.25,1-53.25,3.49c-.76,1.9,3.14,26.8,5,38.4a7,7,0,0,0,6.91,5.89h73.15a7,7,0,0,0,6.92-5.94l4.44-28.92A6,6,0,0,0,425,432Z" style="fill:#d4d4d4"></path><path d="M423.59,471.42c-35.47.08-54.35-17.59-63.28-33.07-3.48-6-9.15-9.64-15-11.77-7.08.79-11.64,1.88-12,2.91-.76,1.9,3.14,26.8,5,38.4a7,7,0,0,0,6.91,5.89h73.15A7,7,0,0,0,423.59,471.42Z" style="opacity:0.29"></path><path d="M424.86,432s-11.5-4.1-38.32-6-52.25,1-53.25,3.49c-.76,1.9,3.14,26.8,5,38.4a7,7,0,0,0,6.91,5.89h73.15a7,7,0,0,0,6.92-5.94l4.44-28.92A6,6,0,0,0,425,432Z" style="fill:none;stroke:#263238;stroke-miterlimit:10"></path></g><g id="freepik--Floor--inject-103"><line x1="458.37" y1="473.78" x2="478.37" y2="473.78" style="fill:none;stroke:#263238;stroke-miterlimit:10"></line><line x1="18.11" y1="473.78" x2="450.03" y2="473.78" style="fill:none;stroke:#263238;stroke-miterlimit:10"></line></g></svg>